# xmcd
#
# Track frame offsets: 
#        150
#        23282
#        44329
#        64254
#        78146
#        93103
#        115593
#        137721
#        153873
#        173444
#        193135
#
# Disc length: 2772 seconds
#
# Revision: 0
# Processed by: cddbd v1.5.1PL0 Copyright (c) Steve Scherf et al.
# Submitted via: ExactAudioCopy v0.95a3
#
DISCID=760ad20b
DTITLE=The Gliders - Son of Dust
DYEAR=2004
DGENRE=Blues
TTITLE0=Traffic
TTITLE1=Down
TTITLE2=Dr Wishbone
TTITLE3=Number 37
TTITLE4=Big Thing
TTITLE5=The Walker
TTITLE6=Morning Sun
TTITLE7=Face The Truth
TTITLE8=The Boy With The Headlight Eyes
TTITLE9=Medusa Shades
TTITLE10=Hold On
EXTD=
EXTT0=
EXTT1=
EXTT2=
EXTT3=
EXTT4=
EXTT5=
EXTT6=
EXTT7=
EXTT8=
EXTT9=
EXTT10=
PLAYORDER=
